<?xml version="1.0" encoding="utf-8"?>
<!-- Generator: Adobe Illustrator 19.2.1, SVG Export Plug-In . SVG Version: 6.00 Build 0)  -->
<svg version="1.1" id="Calque_2" xmlns="http://www.w3.org/2000/svg" xmlns:xlink="http://www.w3.org/1999/xlink" x="0px" y="0px"
	 viewBox="0 0 52.1 64" style="enable-background:new 0 0 52.1 64;" xml:space="preserve">
<style type="text/css">
	.st0{fill:#EC5252;}
	.st1{fill:#FFFFFF;}
</style>
<g id="XMLID_1_">
	<g>
		<path class="st0" d="M52.1,26.6c0,6.9-3.3,13.4-7.6,19.1V27.1c0-3-5.5-5.6-13.2-6.4c-0.1-2-1.8-3.7-3.9-3.7c-1,0-1.9,0.4-2.6,1
			c-1.4-1.6-3.4-2.6-5.6-2.6c-4.1,0-7.4,3.3-7.6,7.4C9,24,7.4,25.5,7.4,27.1c0,0.2,0,0.4,0.1,0.6H7.4l0.2,18.2C3.3,40,0,33.4,0,26.6
			C0,11.9,11.7,0,26,0S52.1,11.9,52.1,26.6z"/>
		<path class="st1" d="M44.5,45.7L44.5,45.7c-1.3,1.7-2.6,3.3-3.9,4.8V31.2v0c2.5-1.1,3.9-2.6,3.9-4.1V45.7z"/>
		<path class="st1" d="M31.3,20.6c7.6,0.8,13.2,3.4,13.2,6.4c0,1.5-1.5,3-3.9,4.1v0c-1.2,0.6-2.7,1-4.4,1.5
			c-1.2,0.3-2.5,0.5-3.9,0.7c-1.3,0.2-2.7,0.3-4.2,0.4c-0.7,0-1.4,0.1-2.1,0.1c-0.7,0-1.4,0-2.1-0.1c-1.4-0.1-2.8-0.2-4.1-0.3
			c-1.4-0.2-2.8-0.4-4-0.7c-1.4-0.4-2.7-0.8-3.9-1.2c-2.4-1-4-2.3-4.4-3.8c-0.1-0.2-0.1-0.4-0.1-0.6c0-1.6,1.6-3.1,4.1-4.2
			c0.2-4.1,3.5-7.4,7.6-7.4c2.2,0,4.2,1,5.6,2.6c0.7-0.7,1.6-1,2.6-1C29.5,16.9,31.2,18.6,31.3,20.6z"/>
		<path class="st0" d="M40.6,31.2v19.3c-1.4,1.6-2.9,3.1-4.2,4.5c0,0-0.1,0.1-0.1,0.1l-0.1-0.1V32.6C37.8,32.2,39.3,31.7,40.6,31.2z
			"/>
		<path class="st1" d="M36.2,54.9l0.1,0.1c-1.4,1.4-2.8,2.7-4,3.9V33.4v0c1.4-0.2,2.7-0.4,3.9-0.7L36.2,54.9L36.2,54.9z"/>
		<path class="st0" d="M32.3,33.4v25.5c-1.5,1.5-3,2.5-4,3.3c0,0-0.1,0.1-0.1,0.1l-0.1-0.1V33.7C29.5,33.6,30.9,33.5,32.3,33.4
			L32.3,33.4z"/>
		<path class="st1" d="M28.1,62.2L28.1,62.2c-1.3,1.1-2,1.8-2,1.8s-0.8-0.8-2.2-1.8V33.7v-0.1c0.7,0,1.4,0.1,2.1,0.1
			c0.7,0,1.4,0,2.1-0.1V62.2z"/>
		<path class="st0" d="M23.9,33.7v28.4c-1.1-0.8-2.5-2-4.1-3.3V33.4C21.1,33.5,22.4,33.6,23.9,33.7L23.9,33.7z"/>
		<path class="st1" d="M19.8,33.4v25.4c-1.3-1.1-2.7-2.4-4.1-3.8l0.1-0.1V32.6C17,32.9,18.4,33.2,19.8,33.4z"/>
		<path class="st0" d="M15.8,32.6v22.3L15.7,55c0,0-0.1-0.1-0.1-0.1c-1.2-1.2-2.5-2.5-3.7-3.9V31.4C13,31.9,14.3,32.3,15.8,32.6z"/>
		<path class="st1" d="M11.9,31.4v19.7c-0.1-0.1-0.3-0.3-0.4-0.4c-1.4-1.5-2.7-3.1-3.9-4.8L7.5,27.7h0.1
			C7.9,29.1,9.5,30.4,11.9,31.4z"/>
	</g>
</g>
</svg>
